<?xml version="1.0" encoding="UTF-8" standalone="no"?>
<svg
   xmlns:dc="http://purl.org/dc/elements/1.1/"
   xmlns:cc="http://creativecommons.org/ns#"
   xmlns:rdf="http://www.w3.org/1999/02/22-rdf-syntax-ns#"
   xmlns:svg="http://www.w3.org/2000/svg"
   xmlns="http://www.w3.org/2000/svg"
   xmlns:sodipodi="http://sodipodi.sourceforge.net/DTD/sodipodi-0.dtd"
   xmlns:inkscape="http://www.inkscape.org/namespaces/inkscape"
   width="22px"
   height="21px"
   viewBox="0 0 22 21"
   version="1.1"
   id="svg4173"
   inkscape:version="0.91 r13725"
   sodipodi:docname="bbcmapicon.svg">
  <metadata
     id="metadata4186">
    <rdf:RDF>
      <cc:Work
         rdf:about="">
        <dc:format>image/svg+xml</dc:format>
        <dc:type
           rdf:resource="http://purl.org/dc/dcmitype/StillImage" />
        <dc:title>icon/favorites-blue-deselected large</dc:title>
      </cc:Work>
    </rdf:RDF>
  </metadata>
  <sodipodi:namedview
     pagecolor="#ffffff"
     bordercolor="#666666"
     borderopacity="1"
     objecttolerance="10"
     gridtolerance="10"
     guidetolerance="10"
     inkscape:pageopacity="0"
     inkscape:pageshadow="2"
     inkscape:window-width="2048"
     inkscape:window-height="1089"
     id="namedview4184"
     showgrid="false"
     inkscape:zoom="40.952381"
     inkscape:cx="7.3982558"
     inkscape:cy="10.5"
     inkscape:window-x="-8"
     inkscape:window-y="-8"
     inkscape:window-maximized="1"
     inkscape:current-layer="svg4173" />
  <!-- Generator: Sketch 3.8.3 (29802) - http://www.bohemiancoding.com/sketch -->
  <title
     id="title4175">icon/favorites-blue-deselected large</title>
  <desc
     id="desc4177">Created with Sketch.</desc>
  <defs
     id="defs4179" />
  <g
     id="Symbols"
     stroke="none"
     stroke-width="1"
     fill="none"
     fill-rule="evenodd"
     stroke-linecap="square"
     stroke-linejoin="round">
    <g
       id="icon/favorites-blue-deselected-large"
       stroke-width="1.5"
       stroke="#003377">
      <polygon
         id="Star-2"
         points="10.9888911 16.035033 4.8154169 20 6.67861619 12.9034349 1 8.25735421 8.32499472 7.83640282 10.9888911 1 13.6527875 7.83640282 20.9777823 8.25735421 15.2991661 12.9034349 17.1623654 20" />
    </g>
  </g>
  <path
     style="fill:#ffe680;stroke-width:2;stroke-miterlimit:4;stroke-dasharray:none"
     d="m 6.0576744,18.279146 c 0,-0.0073 0.3089967,-1.18645 0.6866592,-2.620336 0.7572637,-2.875131 0.743538,-2.808133 0.6271016,-3.061059 -0.033436,-0.07263 -0.092724,-0.16531 -0.1317531,-0.205956 C 7.2006534,12.351148 6.2357747,11.555127 5.095507,10.62286 3.4261486,9.2580148 3.0313452,8.9243988 3.0687628,8.9102248 3.0943212,8.9005433 4.2305523,8.8305098 5.5937209,8.7545953 8.5646564,8.5891443 8.5051961,8.5938044 8.6607944,8.5142119 8.8021778,8.4418906 8.939763,8.3038376 9.0058097,8.1680233 9.0319342,8.1143023 9.4863698,6.9577788 10.015666,5.5979712 c 0.529296,-1.3598075 0.967851,-2.4722554 0.974567,-2.4721063 0.0067,1.492e-4 0.457238,1.1444745 1.001162,2.5429454 0.925689,2.3800167 0.995815,2.5503526 1.09621,2.6627014 0.05899,0.066015 0.16302,0.1482846 0.231176,0.1828218 0.164057,0.083134 -0.04195,0.068042 3.947033,0.2891495 0.87968,0.04876 1.619927,0.096506 1.644994,0.106101 0.0363,0.013896 -0.387061,0.3714143 -2.080479,1.756912 l -2.126054,1.739466 -0.07923,0.160942 c -0.13985,0.284075 -0.164375,0.159457 0.609278,3.095868 0.378359,1.436065 0.684635,2.614317 0.680615,2.618338 -0.004,0.004 -1.017576,-0.642067 -2.252345,-1.43575 -1.234769,-0.793683 -2.299976,-1.469109 -2.367127,-1.500948 -0.09506,-0.04507 -0.163343,-0.05794 -0.308397,-0.05813 -0.162911,-2.2e-4 -0.205837,0.0098 -0.341861,0.07986 -0.08556,0.04406 -1.1390151,0.712381 -2.341021,1.485169 -2.4386408,1.56784 -2.2465116,1.445727 -2.2465116,1.42783 z"
     id="path4188"
     inkscape:connector-curvature="0" />
  <path
     style="fill:#00ffff;stroke-width:2;stroke-miterlimit:4;stroke-dasharray:none"
     d="m 6.0787108,18.22448 c 0.045168,-0.150562 1.0928251,-4.169429 1.2020451,-4.611108 0.073064,-0.295465 0.1391756,-0.614128 0.1469151,-0.708139 0.013138,-0.159591 0.00866,-0.18146 -0.067497,-0.329652 C 7.2647307,12.389864 7.3501101,12.464613 5.4960465,10.943562 3.4911273,9.2987512 3.0731023,8.9467814 3.0966077,8.923276 3.109123,8.9107608 3.7911957,8.8657898 5.0931395,8.7916393 8.4006498,8.6032644 8.5168797,8.5946671 8.6444928,8.5289569 8.8810658,8.4071412 8.972943,8.2816423 9.1411288,7.8505814 9.427384,7.1169088 10.785493,3.6538271 10.881604,3.4124925 c 0.0575,-0.1443791 0.10766,-0.2593911 0.111469,-0.2555823 0.01014,0.010135 0.498862,1.249829 1.02251,2.5936712 0.689231,1.7687812 0.937819,2.3813915 1.017361,2.507138 0.109463,0.1730478 0.287118,0.294209 0.472405,0.3221817 0.17142,0.025879 0.738408,0.062231 2.527325,0.1620358 2.030796,0.1132994 2.494759,0.1410345 2.706033,0.1617635 l 0.154287,0.015138 -0.06882,0.073304 c -0.09797,0.1043463 -0.843199,0.7241305 -2.59684,2.1597081 l -1.526854,1.249923 -0.08238,0.170298 c -0.134233,0.277471 -0.147875,0.207992 0.604829,3.080255 0.663351,2.531297 0.671609,2.563724 0.656665,2.578668 -0.01539,0.01539 0.02759,0.04237 -2.00796,-1.260132 -1.976695,-1.264843 -2.426314,-1.549339 -2.565755,-1.62348 -0.09509,-0.05056 -0.149177,-0.06133 -0.307852,-0.06133 -0.106504,0 -0.227598,0.01472 -0.271073,0.03296 -0.09591,0.04023 -0.774752,0.469104 -2.9144635,1.841273 -0.9016568,0.57822 -1.6636415,1.064296 -1.6932991,1.080168 -0.04748,0.02541 -0.052316,0.0235 -0.040475,-0.01597 z"
     id="path4138"
     inkscape:connector-curvature="0" />
</svg>
