<?xml version="1.0" encoding="UTF-8" standalone="no"?>
<svg
   xmlns:svg="http://www.w3.org/2000/svg"
   xmlns="http://www.w3.org/2000/svg"
   width="36.148563"
   height="39.497292"
   >
  <path
     d="m 34.316137,9.6578882 c -0.322495,-3.15284 -0.836231,-5.607655 -1.649002,-6.572544 -3.351036,-3.967344 -26.824778,-4.25768 -29.489957,0 -0.651952,1.043123 -1.109187,3.489246 -1.416039,6.57776 C 0.771041,9.7795862 0,10.613215 0,11.633738 L 0,15.4959 c 0,0.858835 0.544162,1.582937 1.303904,1.865452 -0.179939,6.083143 -0.033902,12.429682 0.235571,15.585997 0,2.436565 1.636834,2.032352 1.636834,2.032352 l 1.534259,0 0,2.630405 c 0,1.043125 1.075286,1.887184 2.400052,1.887184 1.326505,0 2.401791,-0.844059 2.401791,-1.887184 l 0,-2.630405 17.849571,0 0,2.630405 c 0,1.043125 1.074417,1.887184 2.400925,1.887184 1.324764,0 2.400047,-0.844059 2.400047,-1.887184 l 0,-2.630405 0.504181,0 c 0,0 1.9263,0.264256 2.049736,-0.883183 0,-3.147621 0.198193,-10.123507 0.03477,-16.708221 0.807552,-0.252956 1.396919,-0.997049 1.396919,-1.892397 l 0,-3.862162 c 8.66e-4,-1.044864 -0.807552,-1.8923998 -1.832424,-1.9758498 z m -25.40613,-6.00665 18.024294,0 0,2.726897 -18.024294,0 0,-2.726897 z M 9.167311,31.873797 c -1.415171,0 -2.561736,-1.14743 -2.561736,-2.562599 0,-1.414307 1.146565,-2.560871 2.561736,-2.560871 1.415171,0 2.562604,1.146564 2.562604,2.560871 0,1.415169 -1.146564,2.562599 -2.562604,2.562599 z m 17.670501,0 c -1.414301,0 -2.563475,-1.14743 -2.563475,-2.562599 0,-1.414307 1.148308,-2.560871 2.563475,-2.560871 1.415167,0 2.561741,1.146564 2.561741,2.560871 8.7e-4,1.415169 -1.146568,2.562599 -2.561741,2.562599 z m 3.257156,-11.21357 -24.345623,0 0,-12.7695638 24.345623,0 0,12.7695638 z"
     stroke="null"
     style="fill:#003377;fill-opacity:1" />
</svg>
