<?xml version="1.0" encoding="UTF-8" standalone="no"?>
<svg
   xmlns:dc="http://purl.org/dc/elements/1.1/"
   xmlns:cc="http://creativecommons.org/ns#"
   xmlns:rdf="http://www.w3.org/1999/02/22-rdf-syntax-ns#"
   xmlns:svg="http://www.w3.org/2000/svg"
   xmlns="http://www.w3.org/2000/svg"
   xmlns:sodipodi="http://sodipodi.sourceforge.net/DTD/sodipodi-0.dtd"
   xmlns:inkscape="http://www.inkscape.org/namespaces/inkscape"
   width="14.633862"
   height="15.989505"
   id="svg2"
   version="1.1"
   inkscape:version="0.91 r13725"
   sodipodi:docname="busButton.svg">
  <metadata
     id="metadata43">
    <rdf:RDF>
      <cc:Work
         rdf:about="">
        <dc:format>image/svg+xml</dc:format>
        <dc:type
           rdf:resource="http://purl.org/dc/dcmitype/StillImage" />
        <dc:title></dc:title>
      </cc:Work>
    </rdf:RDF>
  </metadata>
  <defs
     id="defs41" />
  <sodipodi:namedview
     pagecolor="#ffffff"
     bordercolor="#666666"
     borderopacity="1"
     objecttolerance="10"
     gridtolerance="10"
     guidetolerance="10"
     inkscape:pageopacity="0"
     inkscape:pageshadow="2"
     inkscape:window-width="2048"
     inkscape:window-height="1089"
     id="namedview39"
     showgrid="false"
     fit-margin-top="0"
     fit-margin-left="0"
     fit-margin-right="0"
     fit-margin-bottom="0"
     inkscape:zoom="14.690864"
     inkscape:cx="9.1041646"
     inkscape:cy="19.671669"
     inkscape:window-x="-8"
     inkscape:window-y="-8"
     inkscape:window-maximized="1"
     inkscape:current-layer="svg2" />
  <path
     inkscape:connector-curvature="0"
     d="M 13.892044,3.909758 C 13.761489,2.6334085 13.553515,1.6396366 13.224485,1.249025 11.867902,-0.35705564 2.3651343,-0.47459112 1.2862023,1.249025 1.0222755,1.6713083 0.83717524,2.6615613 0.71295375,3.9118694 0.31213697,3.9590243 0,4.2964985 0,4.7096313 l 0,1.5635018 c 0,0.3476786 0.22029058,0.6408135 0.52785342,0.7551832 -0.0728438,2.4626101 -0.0137244,5.0318517 0.0953652,6.3096077 0,0.986381 0.66263198,0.822746 0.66263198,0.822746 l 0.6211069,0 0,1.064855 c 0,0.422285 0.4353029,0.76398 0.9716017,0.76398 0.5370031,0 0.9723061,-0.341695 0.9723061,-0.76398 l 0,-1.064855 7.2259587,0 0,1.064855 c 0,0.422285 0.434951,0.76398 0.971957,0.76398 0.536297,0 0.971599,-0.341695 0.971599,-0.76398 l 0,-1.064855 0.204105,0 c 0,0 0.779813,0.106976 0.829786,-0.357534 0,-1.274238 0.08024,-4.0982532 0.01408,-6.7639117 0.326917,-0.1024068 0.56551,-0.4036311 0.56551,-0.7660912 l 0,-1.5635018 C 14.634207,4.2866439 14.306938,3.9435403 13.892045,3.909758 Z M 3.6069971,1.4781134 l 7.2966909,0 0,1.1039175 -7.2966909,0 0,-1.1039175 z M 3.7111595,12.903321 c -0.5728973,0 -1.0370556,-0.464509 -1.0370556,-1.037403 0,-0.572548 0.4641583,-1.036706 1.0370556,-1.036706 0.572897,0 1.037407,0.464158 1.037407,1.036706 0,0.572894 -0.4641581,1.037403 -1.037407,1.037403 z m 7.1534665,0 c -0.572544,0 -1.0377592,-0.464509 -1.0377592,-1.037403 0,-0.572548 0.4648642,-1.036706 1.0377592,-1.036706 0.572895,0 1.037058,0.464158 1.037058,1.036706 3.52e-4,0.572894 -0.46416,1.037403 -1.037058,1.037403 z m 1.31858,-4.5395368 -9.855726,0 0,-5.1694433 9.855726,0 0,5.1694433 z"
     id="svg_2"
     stroke="null"
     style="fill:#003377;fill-opacity:1" />
  <g
     id="svg_3"
     stroke="null"
     transform="translate(-4.643786,-27.063808)" />
  <g
     id="svg_4"
     stroke="null"
     transform="translate(-4.643786,-27.063808)" />
  <g
     id="svg_5"
     stroke="null"
     transform="translate(-4.643786,-27.063808)" />
  <g
     id="svg_6"
     stroke="null"
     transform="translate(-4.643786,-27.063808)" />
  <g
     id="svg_7"
     stroke="null"
     transform="translate(-4.643786,-27.063808)" />
  <g
     id="svg_8"
     stroke="null"
     transform="translate(-4.643786,-27.063808)" />
  <g
     id="svg_9"
     stroke="null"
     transform="translate(-4.643786,-27.063808)" />
  <g
     id="svg_10"
     stroke="null"
     transform="translate(-4.643786,-27.063808)" />
  <g
     id="svg_11"
     stroke="null"
     transform="translate(-4.643786,-27.063808)" />
  <g
     id="svg_12"
     stroke="null"
     transform="translate(-4.643786,-27.063808)" />
  <g
     id="svg_13"
     stroke="null"
     transform="translate(-4.643786,-27.063808)" />
  <g
     id="svg_14"
     stroke="null"
     transform="translate(-4.643786,-27.063808)" />
  <g
     id="svg_15"
     stroke="null"
     transform="translate(-4.643786,-27.063808)" />
  <g
     id="svg_16"
     stroke="null"
     transform="translate(-4.643786,-27.063808)" />
  <g
     id="svg_17"
     stroke="null"
     transform="translate(-4.643786,-27.063808)" />
  <g
     id="svg_18"
     transform="translate(-4.643786,-27.063808)" />
  <g
     id="svg_19"
     transform="translate(-4.643786,-27.063808)" />
  <g
     id="svg_20"
     transform="translate(-4.643786,-27.063808)" />
  <g
     id="svg_21"
     transform="translate(-4.643786,-27.063808)" />
  <g
     id="svg_22"
     transform="translate(-4.643786,-27.063808)" />
  <g
     id="svg_23"
     transform="translate(-4.643786,-27.063808)" />
  <g
     id="svg_24"
     transform="translate(-4.643786,-27.063808)" />
  <g
     id="svg_25"
     transform="translate(-4.643786,-27.063808)" />
  <g
     id="svg_26"
     transform="translate(-4.643786,-27.063808)" />
  <g
     id="svg_27"
     transform="translate(-4.643786,-27.063808)" />
  <g
     id="svg_28"
     transform="translate(-4.643786,-27.063808)" />
  <g
     id="svg_29"
     transform="translate(-4.643786,-27.063808)" />
  <g
     id="svg_30"
     transform="translate(-4.643786,-27.063808)" />
  <g
     id="svg_31"
     transform="translate(-4.643786,-27.063808)" />
  <g
     id="svg_32"
     transform="translate(-4.643786,-27.063808)" />
</svg>
