<?xml version="1.0" encoding="UTF-8" standalone="no"?>
<!-- Generator: Adobe Illustrator 18.1.1, SVG Export Plug-In . SVG Version: 6.00 Build 0)  -->

<svg
   xmlns:dc="http://purl.org/dc/elements/1.1/"
   xmlns:cc="http://creativecommons.org/ns#"
   xmlns:rdf="http://www.w3.org/1999/02/22-rdf-syntax-ns#"
   xmlns:svg="http://www.w3.org/2000/svg"
   xmlns="http://www.w3.org/2000/svg"
   xmlns:sodipodi="http://sodipodi.sourceforge.net/DTD/sodipodi-0.dtd"
   xmlns:inkscape="http://www.inkscape.org/namespaces/inkscape"
   version="1.1"
   id="Capa_1"
   x="0px"
   y="0px"
   viewBox="0 0 37.541998 52.066015"
   xml:space="preserve"
   inkscape:version="0.91 r13725"
   sodipodi:docname="from3.svg"
   width="37.542"
   height="52.066017"><metadata
     id="metadata9"><rdf:RDF><cc:Work
         rdf:about=""><dc:format>image/svg+xml</dc:format><dc:type
           rdf:resource="http://purl.org/dc/dcmitype/StillImage" /><dc:title></dc:title></cc:Work></rdf:RDF></metadata><defs
     id="defs7" /><sodipodi:namedview
     pagecolor="#ffffff"
     bordercolor="#666666"
     borderopacity="1"
     objecttolerance="10"
     gridtolerance="10"
     guidetolerance="10"
     inkscape:pageopacity="0"
     inkscape:pageshadow="2"
     inkscape:window-width="2048"
     inkscape:window-height="1089"
     id="namedview5"
     showgrid="false"
     inkscape:zoom="16.840946"
     inkscape:cx="18.771"
     inkscape:cy="26.033008"
     inkscape:window-x="-8"
     inkscape:window-y="-8"
     inkscape:window-maximized="1"
     inkscape:current-layer="Capa_1"
     fit-margin-top="0"
     fit-margin-left="0"
     fit-margin-right="0"
     fit-margin-bottom="0" /><path
     style="fill:#33cd5f;fill-opacity:1;stroke:#000000;stroke-linecap:butt;stroke-opacity:1;stroke-linejoin:round"
     d="M 18.771,0.49999809 C 8.695,0.49999809 0.5,8.6989981 0.5,18.770998 c 0,9.461 13.676,19.698 17.63,32.338 0.085,0.273 0.34,0.459 0.626,0.457 0.287,-0.004 0.538,-0.192 0.619,-0.467 3.836,-12.951 17.666,-22.856 17.667,-32.33 C 37.041,8.6989981 28.845,0.49999809 18.771,0.49999809 Z m 0,32.13099991 c -7.9,0 -14.328,-6.429 -14.328,-14.328 0,-7.9 6.428,-14.3279999 14.328,-14.3279999 7.898,0 14.327,6.4279999 14.327,14.3279999 0,7.899 -6.429,14.328 -14.327,14.328 z"
     id="path3"
     inkscape:connector-curvature="0" /><text
     xml:space="preserve"
     style="font-style:normal;font-variant:normal;font-weight:bold;font-stretch:normal;font-size:27.5px;line-height:125%;font-family:sans-serif;-inkscape-font-specification:'sans-serif, Bold';text-align:start;letter-spacing:0px;word-spacing:0px;writing-mode:lr-tb;text-anchor:start;fill:#00618d;fill-opacity:1;stroke:#000000;stroke-width:1px;stroke-linecap:butt;stroke-linejoin:miter;stroke-opacity:1"
     x="8.5164423"
     y="28.871546"
     id="text4137"
     sodipodi:linespacing="125%"
     transform="scale(1.0285608,0.97223226)"
     inkscape:transform-center-x="-3.029339"
     inkscape:transform-center-y="-0.43276271"><tspan
       sodipodi:role="line"
       id="tspan4139"
       x="8.5164423"
       y="28.871546">F</tspan></text>
<path
     style="opacity:0.75;fill:#ffffff;fill-opacity:1;stroke:#000000;stroke-width:0.05937909;stroke-linecap:butt;stroke-miterlimit:4;stroke-dasharray:none;stroke-opacity:1"
     d="M 17.221206,32.024219 C 14.237761,31.66422 11.376381,30.309166 9.212258,28.231448 5.2834397,24.459492 3.933174,18.615908 5.8212986,13.556295 6.3691542,12.088204 7.2936898,10.494588 8.2113636,9.4365541 9.5246197,7.9224328 10.994558,6.7772133 12.708395,5.9329462 c 2.899224,-1.4282105 6.046004,-1.7896905 9.233448,-1.060674 0.790183,0.1807267 2.067964,0.6498571 2.9215,1.0726123 4.100048,2.0307499 6.861476,5.8283965 7.569065,10.4093335 0.146969,0.951476 0.146561,2.972981 -7.9e-4,3.916903 -0.933886,5.982408 -5.441312,10.592996 -11.380461,11.640926 -0.849344,0.149862 -2.996451,0.212746 -3.829951,0.112172 z m -0.02969,-7.594445 0,-4.156536 4.394053,0 4.394052,0 0,-2.375164 0,-2.375163 -4.394052,0 -4.394053,0 0,-1.30634 0,-1.30634 4.720638,0 4.720637,0 0,-2.404853 0,-2.4048534 -7.897418,0 -7.897419,0 0,10.2428924 0,10.242893 3.176781,0 3.176781,0 0,-4.156536 z"
     id="path5326"
     inkscape:connector-curvature="0" /></svg>