<?xml version="1.0" encoding="UTF-8" standalone="no"?>
<svg
   xmlns:dc="http://purl.org/dc/elements/1.1/"
   xmlns:cc="http://creativecommons.org/ns#"
   xmlns:rdf="http://www.w3.org/1999/02/22-rdf-syntax-ns#"
   xmlns:svg="http://www.w3.org/2000/svg"
   xmlns="http://www.w3.org/2000/svg"
   xmlns:sodipodi="http://sodipodi.sourceforge.net/DTD/sodipodi-0.dtd"
   xmlns:inkscape="http://www.inkscape.org/namespaces/inkscape"
   width="18px"
   height="16px"
   viewBox="0 0 18 16"
   version="1.1"
   id="svg4215"
   inkscape:version="0.91 r13725"
   sodipodi:docname="incident on.svg">
  <metadata
     id="metadata4231">
    <rdf:RDF>
      <cc:Work
         rdf:about="">
        <dc:format>image/svg+xml</dc:format>
        <dc:type
           rdf:resource="http://purl.org/dc/dcmitype/StillImage" />
      </cc:Work>
    </rdf:RDF>
  </metadata>
  <sodipodi:namedview
     pagecolor="#ffffff"
     bordercolor="#666666"
     borderopacity="1"
     objecttolerance="10"
     gridtolerance="10"
     guidetolerance="10"
     inkscape:pageopacity="0"
     inkscape:pageshadow="2"
     inkscape:window-width="2048"
     inkscape:window-height="1089"
     id="namedview4229"
     showgrid="false"
     inkscape:zoom="14.75"
     inkscape:cx="-1"
     inkscape:cy="8"
     inkscape:window-x="-8"
     inkscape:window-y="-8"
     inkscape:window-maximized="1"
     inkscape:current-layer="svg4215" />
  <!-- Generator: Sketch 3.8.3 (29802) - http://www.bohemiancoding.com/sketch -->
  <title
     id="title4217">icon/incident on</title>
  <desc
     id="desc4219">Created with Sketch.</desc>
  <defs
     id="defs4221" />
  <path
     style="fill:#003377;fill-rule:evenodd;stroke:none;stroke-width:1"
     d="M 9 0 L 0 16 L 18 16 L 9 0 z M 8 5 L 9.9902344 5 L 10 8.8867188 C 10 9.4705106 9.9995654 9.3314837 9.9355469 9.7597656 C 9.8715284 10.188048 9.7933479 10.369786 9.7070312 11 L 8.28125 11 C 8.1961846 10.369786 8.1654004 10.189389 8.0996094 9.7597656 C 8.0338164 9.3301427 8.0097656 9.4705105 8.0097656 8.8867188 L 8 5 z M 9.0039062 12 C 9.1402039 12 9.2698134 12.026576 9.3925781 12.080078 C 9.5163093 12.13358 9.6229723 12.204447 9.7109375 12.292969 C 9.7989027 12.382463 9.8687092 12.487787 9.921875 12.611328 C 9.9740741 12.735842 10 12.865774 10 13.003906 C 10 13.145929 9.9740741 13.27587 9.921875 13.398438 C 9.8687092 13.520032 9.7989027 13.62535 9.7109375 13.714844 C 9.6229723 13.802393 9.5163093 13.873244 9.3925781 13.923828 C 9.2698134 13.974411 9.1392374 14 9.0039062 14 C 8.8627753 14 8.7311536 13.974411 8.6074219 13.923828 C 8.4846573 13.873244 8.3779744 13.802394 8.2871094 13.714844 C 8.1972109 13.62535 8.1264379 13.520032 8.0761719 13.398438 C 8.0259069 13.275869 8 13.145929 8 13.003906 C 8 12.865774 8.0259061 12.735839 8.0761719 12.611328 C 8.1264377 12.487787 8.1972104 12.382459 8.2871094 12.292969 C 8.3779746 12.204447 8.4846573 12.133578 8.6074219 12.080078 C 8.7311532 12.026578 8.863742 12 9.0039062 12 z "
     id="Triangle-6" />
</svg>
