<?xml version="1.0" encoding="UTF-8" standalone="no"?>
<svg width="18px" height="16px" viewBox="0 0 18 16" version="1.1" xmlns="http://www.w3.org/2000/svg" xmlns:xlink="http://www.w3.org/1999/xlink">
    <!-- Generator: Sketch 3.8.3 (29802) - http://www.bohemiancoding.com/sketch -->
    <title>icon/incident off</title>
    <desc>Created with Sketch.</desc>
    <defs></defs>
    <g id="Symbols" stroke="none" stroke-width="1" fill="none" fill-rule="evenodd">
        <g id="icon/incident-off">
            <polygon id="Triangle-6" fill="#747474" points="9 0 18 16 0 16"></polygon>
            <path d="M9.99028183,5 L8,5 L8.00971817,8.88592478 C8.00971817,9.46971673 8.03368967,9.33109169 8.09948285,9.76071464 C8.16527603,10.1903376 8.19640116,10.369786 8.28146663,11 L9.70756423,11 C9.79388067,10.369786 9.87062682,10.1889965 9.93464529,9.76071464 C9.99866375,9.33243274 10,9.46971673 10,8.88592478 L9.99028183,5 Z" id="Fill-2" fill="#FFFFFF"></path>
            <path d="M8,13.0038911 C8,13.1459144 8.02609957,13.2762646 8.07636539,13.3988327 C8.12663122,13.520428 8.19719671,13.6254864 8.28709522,13.7149805 C8.37796037,13.8025292 8.48429193,13.8725681 8.60705655,13.9231518 C8.73078782,13.9737354 8.86321895,14 9.00434993,14 C9.13968101,14 9.27017883,13.9737354 9.39294345,13.9231518 C9.51667472,13.8725681 9.62203963,13.8025292 9.71000483,13.7149805 C9.79797003,13.6254864 9.86853552,13.520428 9.9217013,13.3988327 C9.97390043,13.2762646 10,13.1459144 10,13.0038911 C10,12.8657588 9.97390043,12.7354086 9.9217013,12.6108949 C9.86853552,12.4873541 9.79797003,12.3822957 9.71000483,12.2928016 C9.62203963,12.2042802 9.51667472,12.1332685 9.39294345,12.0797665 C9.27017883,12.0262646 9.13968101,12 9.00338328,12 C8.86321895,12 8.73078782,12.0262646 8.60705655,12.0797665 C8.48429193,12.1332685 8.37796037,12.2042802 8.28709522,12.2928016 C8.19719671,12.3822957 8.12663122,12.4873541 8.07636539,12.6108949 C8.02609957,12.7354086 8,12.8657588 8,13.0038911 L8,13.0038911 Z" id="Fill-2" fill="#FFFFFF"></path>
        </g>
    </g>
</svg>