<?xml version="1.0" encoding="UTF-8" standalone="no"?>
<svg
   xmlns:dc="http://purl.org/dc/elements/1.1/"
   xmlns:cc="http://creativecommons.org/ns#"
   xmlns:rdf="http://www.w3.org/1999/02/22-rdf-syntax-ns#"
   xmlns:svg="http://www.w3.org/2000/svg"
   xmlns="http://www.w3.org/2000/svg"
   xmlns:xlink="http://www.w3.org/1999/xlink"
   xmlns:sodipodi="http://sodipodi.sourceforge.net/DTD/sodipodi-0.dtd"
   xmlns:inkscape="http://www.inkscape.org/namespaces/inkscape"
   width="49px"
   height="49px"
   viewBox="0 0 49 49"
   version="1.1"
   id="svg4136"
   inkscape:version="0.91 r13725"
   sodipodi:docname="maphomebutton.svg">
  <metadata
     id="metadata4161">
    <rdf:RDF>
      <cc:Work
         rdf:about="">
        <dc:format>image/svg+xml</dc:format>
        <dc:type
           rdf:resource="http://purl.org/dc/dcmitype/StillImage" />
        <dc:title>map button/fave</dc:title>
      </cc:Work>
    </rdf:RDF>
  </metadata>
  <sodipodi:namedview
     pagecolor="#ffffff"
     bordercolor="#666666"
     borderopacity="1"
     objecttolerance="10"
     gridtolerance="10"
     guidetolerance="10"
     inkscape:pageopacity="0"
     inkscape:pageshadow="2"
     inkscape:window-width="2048"
     inkscape:window-height="1089"
     id="namedview4159"
     showgrid="false"
     inkscape:zoom="17.55102"
     inkscape:cx="16.09593"
     inkscape:cy="24.5"
     inkscape:window-x="-8"
     inkscape:window-y="-8"
     inkscape:window-maximized="1"
     inkscape:current-layer="svg4136" />
  <!-- Generator: Sketch 3.8.3 (29802) - http://www.bohemiancoding.com/sketch -->
  <title
     id="title4138">map button/fave</title>
  <desc
     id="desc4140">Created with Sketch.</desc>
  <defs
     id="defs4142">
    <circle
       id="path-1"
       cx="24.5"
       cy="24.5"
       r="24.5" />
    <mask
       id="mask-2"
       maskContentUnits="userSpaceOnUse"
       maskUnits="objectBoundingBox"
       x="0"
       y="0"
       width="49"
       height="49"
       fill="white">
      <use
         xlink:href="#path-1"
         id="use4146" />
    </mask>
    <rect
       id="path-3"
       x="-159"
       y="-234"
       width="501"
       height="310" />
    <mask
       id="mask-4"
       maskContentUnits="userSpaceOnUse"
       maskUnits="objectBoundingBox"
       x="0"
       y="0"
       width="501"
       height="310"
       fill="white">
      <use
         xlink:href="#path-3"
         id="use4150" />
    </mask>
  </defs>
  <g
     id="Symbols"
     stroke="none"
     stroke-width="1"
     fill="none"
     fill-rule="evenodd"
     stroke-linecap="square">
    <g
       id="map-button/fave"
       stroke="#003377">
      <use
         id="Oval-62"
         mask="url(#mask-2)"
         stroke-width="3"
         fill="#FFFFFF"
         xlink:href="#path-1" />
      <g
         id="floating-button---fave"
         transform="translate(13.000000, 12.000000)"
         stroke-width="1.5"
         stroke-linejoin="round">
        <g
           id="icon/favorites-yellow-deselected-large">
          <polygon
             id="Star-2"
             points="11.9888911 17.035033 5.8154169 21 7.67861619 13.9034349 2 9.25735421 9.32499472 8.83640282 11.9888911 2 14.6527875 8.83640282 21.9777823 9.25735421 16.2991661 13.9034349 18.1623654 21" />
        </g>
      </g>
    </g>
    <use
       id="Rectangle-136"
       stroke="#505050"
       mask="url(#mask-4)"
       stroke-width="4"
       xlink:href="#path-3" />
  </g>
  <path
     style="fill:#ffe680;stroke-width:2;stroke-miterlimit:4;stroke-dasharray:none"
     d="m 20.118488,31.161697 c 0,-0.03756 0.294855,-1.191476 0.655233,-2.564264 0.360378,-1.372789 0.655232,-2.588365 0.655232,-2.70128 0,-0.112915 -0.03624,-0.275385 -0.08054,-0.361043 -0.04429,-0.08566 -1.019944,-0.923746 -2.168108,-1.862416 -1.629344,-1.332054 -2.065028,-1.715192 -1.984869,-1.745487 0.05649,-0.02135 1.153922,-0.09361 2.438748,-0.160579 2.767264,-0.144241 3.010784,-0.172041 3.213523,-0.366862 0.10633,-0.102178 0.429348,-0.86519 1.145198,-2.705114 0.620797,-1.595612 1.010541,-2.526567 1.032726,-2.466804 0.0196,0.05279 0.464181,1.198489 0.987962,2.545989 0.679949,1.749267 0.996578,2.4954 1.107043,2.608733 0.209178,0.214608 0.408719,0.238367 3.225176,0.384021 1.284826,0.06645 2.382262,0.138499 2.438748,0.16012 0.08038,0.03077 -0.35104,0.410263 -1.984869,1.745983 -1.148164,0.93867 -2.123813,1.776757 -2.168109,1.862416 -0.0443,0.08566 -0.08054,0.250201 -0.08054,0.365651 0,0.115449 0.296141,1.337151 0.658091,2.714892 0.36195,1.377742 0.650395,2.527534 0.640989,2.555094 -0.0094,0.02756 -1.042685,-0.60939 -2.296173,-1.415443 -2.202615,-1.416388 -2.288627,-1.465557 -2.563954,-1.465688 -0.27523,-1.14e-4 -0.36018,0.04823 -2.506977,1.427311 -1.222151,0.785096 -2.254142,1.446709 -2.293314,1.47025 -0.04117,0.02474 -0.07122,0.01399 -0.07122,-0.02548 z"
     id="path4152"
     inkscape:connector-curvature="0" />
</svg>
