<?xml version="1.0" encoding="UTF-8" standalone="no"?>
<svg width="49px" height="49px" viewBox="0 0 49 49" version="1.1" xmlns="http://www.w3.org/2000/svg" xmlns:xlink="http://www.w3.org/1999/xlink">
    <!-- Generator: Sketch 3.8.3 (29802) - http://www.bohemiancoding.com/sketch -->
    <title>map button/user position</title>
    <desc>Created with Sketch.</desc>
    <defs>
        <path d="M24.5,49 C38.0309764,49 49,38.0309764 49,24.5 C49,10.9690236 38.0309764,0 24.5,0 C10.9690236,0 0,10.9690236 0,24.5 C0,38.0309764 10.9690236,49 24.5,49 Z" id="path-1"></path>
        <mask id="mask-2" maskContentUnits="userSpaceOnUse" maskUnits="objectBoundingBox" x="0" y="0" width="49" height="49" fill="white">
            <use xlink:href="#path-1"></use>
        </mask>
        <circle id="path-3" cx="24.5" cy="24.5" r="11.5"></circle>
        <mask id="mask-4" maskContentUnits="userSpaceOnUse" maskUnits="objectBoundingBox" x="0" y="0" width="23" height="23" fill="white">
            <use xlink:href="#path-3"></use>
        </mask>
        <rect id="path-5" x="-232" y="-234" width="501" height="310"></rect>
        <mask id="mask-6" maskContentUnits="userSpaceOnUse" maskUnits="objectBoundingBox" x="0" y="0" width="501" height="310" fill="white">
            <use xlink:href="#path-5"></use>
        </mask>
    </defs>
    <g id="Symbols" stroke="none" stroke-width="1" fill="none" fill-rule="evenodd">
        <g id="map-button/user-position">
            <use id="Oval-62" stroke="#003377" mask="url(#mask-2)" stroke-width="3" stroke-linecap="square" fill="#FFFFFF" xlink:href="#path-1"></use>
            <use id="Oval-3" stroke="#003377" mask="url(#mask-4)" stroke-width="3" stroke-linecap="square" xlink:href="#path-3"></use>
            <path d="M9,24.75 L14,24.75" id="Line" stroke="#003377" stroke-width="1.5"></path>
            <path d="M35,24.75 L40,24.75" id="Line-Copy" stroke="#003377" stroke-width="1.5"></path>
            <path d="M24.75,40 L24.75,35" id="Line-Copy-3" stroke="#003377" stroke-width="1.5"></path>
            <path d="M24.75,14 L24.75,9" id="Line-Copy-2" stroke="#003377" stroke-width="1.5"></path>
            <g id="person" transform="translate(20.000000, 20.000000)" fill="#003377">
                <path d="M4.5,4.5 C5.7375,4.5 6.75,3.4875 6.75,2.25 C6.75,1.0125 5.7375,0 4.5,0 C3.2625,0 2.25,1.0125 2.25,2.25 C2.25,3.4875 3.2625,4.5 4.5,4.5 L4.5,4.5 Z M4.5,5.625 C2.98125,5.625 0,6.35625 0,7.875 L0,9 L9,9 L9,7.875 C9,6.35625 6.01875,5.625 4.5,5.625 L4.5,5.625 Z" id="Shape"></path>
            </g>
        </g>
        <use id="Rectangle-136" stroke="#505050" mask="url(#mask-6)" stroke-width="4" stroke-linecap="square" xlink:href="#path-5"></use>
    </g>
</svg>