<?xml version="1.0" encoding="utf-8" ?>
<!-- Generator: Adobe Illustrator 16.0.0, SVG Export Plug-In . SVG Version: 6.00 Build 0)  -->
<!DOCTYPE svg PUBLIC "-//W3C//DTD SVG 1.1//EN" "http://www.w3.org/Graphics/SVG/1.1/DTD/svg11.dtd">
<svg version="1.1" id="Layer_1" xmlns="http://www.w3.org/2000/svg" xmlns:xlink="http://www.w3.org/1999/xlink" x="0px" y="0px"
     width="66px" height="58px" viewBox="0 0 66 58" enable-background="new 0 0 66 58" xml:space="preserve">
<g>
<path fill="#004D9B" d="M60.533,19.979c-3.469-2.96-9.438-2.118-15.506,1.59c4.265-2.012,8.272-2.187,10.718-0.042
		c4.258,3.737,2.166,13.083-4.673,20.879c-6.84,7.795-15.834,11.085-20.092,7.349c-2.417-2.119-2.786-6.047-1.405-10.472
		c-3.052,6.884-3.084,13.281,0.525,16.361c5.289,4.515,16.389,0.188,24.792-9.66C63.297,36.135,65.822,24.492,60.533,19.979z" />
<g>
<g>
<path fill="#004D9B" d="M6.846,34.645H4.669v-6.277H2.702v-1.78h6.106v1.78H6.846V34.645z" />
<path fill="#004D9B" d="M19.903,28.29c0.188,0,0.366,0.015,0.535,0.043l0.121,0.023l-0.192,2.033
				c-0.177-0.043-0.42-0.065-0.733-0.065c-0.47,0-0.813,0.108-1.025,0.323c-0.213,0.213-0.32,0.522-0.32,0.928v3.07h-2.154V28.4
				h1.604l0.336,0.998h0.104c0.18-0.331,0.431-0.598,0.752-0.802C19.252,28.392,19.575,28.29,19.903,28.29z" />
<path fill="#004D9B" d="M25.199,28.29c0.188,0,0.366,0.015,0.535,0.043l0.121,0.023l-0.193,2.033
				c-0.177-0.043-0.42-0.065-0.733-0.065c-0.47,0-0.813,0.108-1.025,0.323c-0.213,0.213-0.321,0.522-0.321,0.928v3.07H21.43V28.4
				h1.604l0.336,0.998h0.104c0.181-0.331,0.432-0.598,0.753-0.802C24.548,28.392,24.872,28.29,25.199,28.29z" />
<path fill="#004D9B" d="M30.799,34.645l-0.414-0.826h-0.043c-0.291,0.361-0.586,0.604-0.887,0.736
				c-0.302,0.133-0.691,0.199-1.168,0.199c-0.589,0-1.051-0.176-1.39-0.527c-0.338-0.354-0.507-0.85-0.507-1.488
				c0-0.665,0.232-1.16,0.695-1.485c0.462-0.326,1.134-0.508,2.012-0.549l1.042-0.033v-0.088c0-0.515-0.253-0.771-0.76-0.771
				c-0.456,0-1.035,0.153-1.736,0.461l-0.623-1.421c0.727-0.374,1.646-0.562,2.756-0.562c0.801,0,1.421,0.198,1.859,0.595
				c0.439,0.397,0.659,0.952,0.659,1.664v4.096H30.799z M29.201,33.232c0.261,0,0.484-0.082,0.669-0.248
				c0.186-0.164,0.279-0.379,0.279-0.646v-0.483l-0.497,0.021c-0.708,0.026-1.063,0.287-1.063,0.783
				C28.589,33.042,28.793,33.232,29.201,33.232z" />
<path fill="#004D9B" d="M12.171,34.754c-1.041,0-1.848-0.275-2.422-0.828c-0.576-0.554-0.863-1.341-0.863-2.363
				c0-1.054,0.266-1.862,0.799-2.426c0.533-0.563,1.293-0.845,2.281-0.845c0.941,0,1.667,0.245,2.18,0.736
				c0.512,0.491,0.769,1.198,0.769,2.12v0.692c0,0,0.018,0.185-0.056,0.238c-0.059,0.044-0.272,0.026-0.272,0.026h-3.524
				c0.015,0.351,0.143,0.623,0.383,0.821c0.241,0.199,0.568,0.298,0.984,0.298c0.379,0,0.728-0.037,1.045-0.106
				c0.281-0.064,0.583-0.167,0.907-0.31c0.014-0.008,0.068-0.037,0.093-0.029c0.038,0.015,0.032,0.058,0.032,0.058v1.463
				c-0.337,0.173-0.687,0.292-1.046,0.358C13.1,34.723,12.67,34.754,12.171,34.754z M12.043,29.755c-0.253,0-0.465,0.08-0.636,0.24
				c-0.171,0.159-0.271,0.411-0.3,0.752h1.852c-0.008-0.302-0.093-0.543-0.257-0.724C12.539,29.846,12.319,29.755,12.043,29.755z" />
		</g>
<g>
<path fill="#004D9B" d="M33.334,38.869c-0.304,0-0.58-0.045-0.827-0.139v-0.933c0.283,0.097,0.529,0.146,0.741,0.146
				c0.335,0,0.594-0.137,0.775-0.41c0.181-0.273,0.326-0.663,0.437-1.172l1.502-7.156h-1.276l0.086-0.443l1.362-0.438l0.15-0.661
				c0.204-0.882,0.483-1.506,0.845-1.869c0.357-0.364,0.893-0.545,1.598-0.545c0.176,0,0.394,0.025,0.647,0.076
				c0.257,0.05,0.455,0.107,0.597,0.168l-0.283,0.854c-0.336-0.128-0.639-0.192-0.908-0.192c-0.385,0-0.678,0.106-0.883,0.321
				c-0.205,0.214-0.371,0.605-0.5,1.174l-0.164,0.714h1.574l-0.166,0.84h-1.566l-1.535,7.264c-0.173,0.834-0.438,1.441-0.794,1.826
				C34.386,38.678,33.917,38.869,33.334,38.869z M39.764,35.615h-1.111l2.197-10.293h1.111L39.764,35.615z" />
<path fill="#004D9B" d="M42.377,28.365h1.111l0.49,3.605c0.043,0.305,0.086,0.752,0.127,1.346
				c0.043,0.594,0.063,1.07,0.063,1.434h0.039c0.153-0.384,0.347-0.825,0.576-1.323c0.229-0.499,0.397-0.843,0.509-1.032l2.15-4.028
				h1.179l-4.604,8.481c-0.41,0.758-0.815,1.284-1.219,1.58c-0.4,0.297-0.884,0.442-1.449,0.442c-0.316,0-0.625-0.045-0.926-0.138
				v-0.895c0.279,0.079,0.567,0.119,0.867,0.119c0.361,0,0.672-0.111,0.93-0.334s0.51-0.553,0.75-0.988l0.504-0.898L42.377,28.365z" />
		</g>
	</g>
</g>
<rect x="0.063" y="3.117" fill="none" width="65.875" height="31.5" />
<g enable-background="new    ">
<path d="M10.614,7.846c0,0.908-0.217,1.632-0.652,2.17c-0.435,0.539-0.984,0.809-1.648,0.809c-0.27,0-0.509-0.031-0.718-0.093
		s-0.421-0.158-0.64-0.288v2.285H6.039V5.263h0.918v0.571c0.228-0.205,0.481-0.377,0.759-0.516c0.278-0.138,0.582-0.207,0.911-0.207
		c0.625,0,1.112,0.247,1.462,0.742S10.614,7.013,10.614,7.846z M9.667,7.948c0-0.622-0.099-1.104-0.298-1.448
		C9.17,6.157,8.848,5.985,8.402,5.985c-0.26,0-0.512,0.058-0.754,0.173C7.405,6.274,7.175,6.423,6.957,6.605v3.091
		c0.241,0.117,0.447,0.197,0.618,0.239s0.367,0.063,0.588,0.063c0.475,0,0.845-0.174,1.108-0.522S9.667,8.619,9.667,7.948z" />
<path d="M16.054,7.992c0,0.918-0.221,1.627-0.664,2.127c-0.443,0.499-1.032,0.749-1.768,0.749c-0.758,0-1.355-0.258-1.79-0.774
		c-0.435-0.516-0.652-1.216-0.652-2.102c0-0.911,0.224-1.619,0.671-2.124s1.038-0.757,1.77-0.757c0.736,0,1.325,0.252,1.768,0.754
		C15.833,6.369,16.054,7.077,16.054,7.992z M15.106,7.992c0-0.706-0.128-1.231-0.386-1.574c-0.257-0.344-0.624-0.516-1.099-0.516
		c-0.479,0-0.847,0.172-1.106,0.516c-0.259,0.343-0.388,0.868-0.388,1.574c0,0.684,0.129,1.202,0.388,1.555
		c0.259,0.354,0.627,0.53,1.106,0.53c0.472,0,0.837-0.173,1.096-0.521C14.977,9.211,15.106,8.688,15.106,7.992z" />
<path d="M23.607,5.263l-1.382,5.454h-0.85l-1.333-4.204l-1.323,4.204h-0.845l-1.396-5.454h0.957l0.962,4.224l1.294-4.224h0.757
		l1.328,4.224l0.908-4.224H23.607z" />
<path d="M26.786,10.844c-0.869,0-1.544-0.245-2.024-0.734c-0.48-0.49-0.72-1.187-0.72-2.088c0-0.889,0.233-1.596,0.698-2.121
		c0.465-0.526,1.074-0.789,1.826-0.789c0.338,0,0.638,0.049,0.898,0.146s0.488,0.251,0.684,0.459s0.345,0.463,0.449,0.764
		c0.104,0.302,0.156,0.67,0.156,1.106v0.498h-3.779c0,0.635,0.16,1.12,0.479,1.455s0.76,0.503,1.323,0.503
		c0.202,0,0.399-0.022,0.593-0.068s0.369-0.104,0.525-0.176c0.166-0.075,0.306-0.147,0.42-0.217c0.114-0.07,0.208-0.137,0.283-0.198
		h0.054v1.001c-0.107,0.042-0.241,0.096-0.4,0.158c-0.16,0.064-0.303,0.113-0.43,0.149c-0.179,0.049-0.341,0.086-0.486,0.112
		S27.007,10.844,26.786,10.844z M27.86,7.382c-0.006-0.247-0.036-0.461-0.088-0.64s-0.127-0.33-0.225-0.454
		c-0.107-0.137-0.245-0.241-0.413-0.313s-0.375-0.107-0.623-0.107c-0.244,0-0.452,0.036-0.623,0.11
		c-0.171,0.072-0.326,0.18-0.466,0.319c-0.137,0.144-0.241,0.302-0.313,0.476c-0.072,0.175-0.117,0.377-0.137,0.608H27.86z" />
<path d="M32.572,6.249h-0.049c-0.068-0.02-0.141-0.032-0.217-0.036c-0.077-0.006-0.168-0.008-0.276-0.008
		c-0.248,0-0.493,0.054-0.737,0.161S30.818,6.633,30.6,6.845v3.872h-0.918V5.263H30.6v0.811c0.335-0.296,0.627-0.505,0.876-0.628
		c0.249-0.121,0.491-0.183,0.725-0.183c0.094,0,0.165,0.003,0.212,0.007c0.047,0.006,0.1,0.013,0.159,0.022V6.249z" />
<path d="M35.604,10.844c-0.869,0-1.544-0.245-2.024-0.734c-0.479-0.49-0.72-1.187-0.72-2.088c0-0.889,0.233-1.596,0.698-2.121
		c0.465-0.526,1.074-0.789,1.826-0.789c0.338,0,0.639,0.049,0.898,0.146s0.488,0.251,0.684,0.459s0.346,0.463,0.449,0.764
		c0.104,0.302,0.156,0.67,0.156,1.106v0.498h-3.779c0,0.635,0.16,1.12,0.479,1.455s0.76,0.503,1.323,0.503
		c0.202,0,0.399-0.022,0.593-0.068c0.194-0.046,0.369-0.104,0.525-0.176c0.166-0.075,0.307-0.147,0.42-0.217
		c0.113-0.07,0.209-0.137,0.283-0.198h0.054v1.001c-0.107,0.042-0.241,0.096-0.4,0.158c-0.159,0.064-0.303,0.113-0.43,0.149
		c-0.179,0.049-0.341,0.086-0.485,0.112C36.009,10.831,35.826,10.844,35.604,10.844z M36.679,7.382
		c-0.007-0.247-0.036-0.461-0.088-0.64s-0.127-0.33-0.225-0.454c-0.107-0.137-0.245-0.241-0.413-0.313
		c-0.167-0.071-0.375-0.107-0.622-0.107c-0.244,0-0.452,0.036-0.622,0.11c-0.172,0.072-0.326,0.18-0.467,0.319
		c-0.137,0.144-0.24,0.302-0.313,0.476c-0.072,0.175-0.117,0.377-0.137,0.608H36.679z" />
<path d="M42.699,10.717h-0.918V10.16c-0.144,0.12-0.267,0.22-0.371,0.298s-0.227,0.149-0.366,0.215
		c-0.13,0.062-0.266,0.11-0.405,0.144c-0.14,0.035-0.303,0.052-0.488,0.052c-0.296,0-0.57-0.062-0.822-0.186
		c-0.253-0.124-0.467-0.305-0.643-0.542c-0.18-0.241-0.317-0.538-0.415-0.891c-0.098-0.354-0.146-0.76-0.146-1.219
		c0-0.479,0.062-0.893,0.186-1.242c0.124-0.351,0.294-0.655,0.513-0.916c0.198-0.237,0.438-0.424,0.721-0.559
		c0.281-0.136,0.576-0.203,0.886-0.203c0.273,0,0.511,0.03,0.713,0.09c0.202,0.061,0.415,0.154,0.64,0.281V3.119h0.918V10.717z
		 M41.781,9.389V6.244c-0.228-0.11-0.432-0.188-0.613-0.229c-0.18-0.042-0.376-0.063-0.588-0.063c-0.472,0-0.842,0.177-1.108,0.529
		c-0.267,0.354-0.4,0.864-0.4,1.531c0,0.642,0.103,1.132,0.308,1.473c0.205,0.34,0.534,0.51,0.986,0.51
		c0.241,0,0.483-0.055,0.728-0.164C41.337,9.722,41.566,9.574,41.781,9.389z" />
</g>
<g enable-background="new    ">
<path d="M54.977,7.899c0,0.892-0.217,1.609-0.649,2.153s-0.976,0.815-1.626,0.815c-0.297,0-0.549-0.036-0.76-0.11
		c-0.209-0.072-0.417-0.171-0.622-0.295l-0.059,0.254h-0.859V3.119h0.918v2.715c0.231-0.208,0.481-0.381,0.752-0.518
		s0.576-0.205,0.918-0.205c0.615,0,1.101,0.246,1.455,0.74C54.799,6.344,54.977,7.027,54.977,7.899z M54.029,7.973
		c0-0.651-0.1-1.145-0.298-1.482c-0.198-0.336-0.518-0.505-0.957-0.505c-0.251,0-0.504,0.059-0.759,0.176
		c-0.256,0.117-0.488,0.266-0.696,0.444V9.73c0.231,0.114,0.437,0.194,0.615,0.242c0.179,0.047,0.376,0.07,0.591,0.07
		c0.469,0,0.836-0.166,1.104-0.498S54.029,8.688,54.029,7.973z" />
</g>
<g enable-background="new    ">
<path d="M60.596,5.263l-2.935,7.466H56.68l0.977-2.275l-1.982-5.19h0.991l1.489,4.038l1.484-4.038H60.596z" />
</g>
</svg>
