<?xml version="1.0" encoding="UTF-8" standalone="no"?>
<svg width="13px" height="19px" viewBox="0 0 13 19" version="1.1" xmlns="http://www.w3.org/2000/svg" xmlns:xlink="http://www.w3.org/1999/xlink">
    <!-- Generator: Sketch 3.8.3 (29802) - http://www.bohemiancoding.com/sketch -->
    <title>map overlay/station</title>
    <desc>Created with Sketch.</desc>
    <defs>
        <path d="M7.56,14.0649031 L7.56,16.759223 L6.37817529,19.152 L5.04,16.759223 L5.04,14.0649031 C2.1643772,13.4915997 0,10.9946016 0,8.00110769 C0,5.00761379 2.1643772,2.51061572 5.04,1.93731226 L5.04,1.34055385 C5.04,0.672510213 5.60412122,0.130953846 6.3,0.130953846 C6.99587878,0.130953846 7.56,0.672510213 7.56,1.34055385 L7.56,1.93731226 C10.4356228,2.51061572 12.6,5.00761379 12.6,8.00110769 C12.6,10.9946016 10.4356228,13.4915997 7.56,14.0649031 Z" id="path-1"></path>
        <mask id="mask-2" maskContentUnits="userSpaceOnUse" maskUnits="objectBoundingBox" x="-1.008" y="-1.008" width="14.616" height="21.0370462">
            <rect x="-1.008" y="-0.877046154" width="14.616" height="21.0370462" fill="white"></rect>
            <use xlink:href="#path-1" fill="black"></use>
        </mask>
        <rect id="path-3" x="-178" y="-55" width="501" height="310"></rect>
        <mask id="mask-4" maskContentUnits="userSpaceOnUse" maskUnits="objectBoundingBox" x="0" y="0" width="501" height="310" fill="white">
            <use xlink:href="#path-3"></use>
        </mask>
    </defs>
    <g id="Symbols" stroke="none" stroke-width="1" fill="none" fill-rule="evenodd">
        <g id="map-overlay/station">
            <g id="Shape">
                <use fill="#003377" fill-rule="evenodd" xlink:href="#path-1"></use>
                <use stroke="#FFFFFF" mask="url(#mask-2)" stroke-width="2.016" xlink:href="#path-1"></use>
            </g>
            <ellipse id="Oval-13-Copy" fill="#FFFFFF" cx="6.3" cy="8.00110769" rx="4.5" ry="4.41969231"></ellipse>
        </g>
        <use id="Rectangle-136" stroke="#505050" mask="url(#mask-4)" stroke-width="4" stroke-linecap="square" xlink:href="#path-3"></use>
    </g>
</svg>