<?xml version="1.0" encoding="UTF-8" standalone="no"?>
<svg width="23px" height="37px" viewBox="0 0 23 37" version="1.1" xmlns="http://www.w3.org/2000/svg" xmlns:xlink="http://www.w3.org/1999/xlink">
    <!-- Generator: Sketch 3.8.3 (29802) - http://www.bohemiancoding.com/sketch -->
    <title>map overlay/station clustered </title>
    <desc>Created with Sketch.</desc>
    <defs>
        <rect id="path-1" x="-116" y="-55" width="501" height="310"></rect>
        <mask id="mask-2" maskContentUnits="userSpaceOnUse" maskUnits="objectBoundingBox" x="0" y="0" width="501" height="310" fill="white">
            <use xlink:href="#path-1"></use>
        </mask>
    </defs>
    <g id="Symbols" stroke="none" stroke-width="1" fill="none" fill-rule="evenodd">
        <g id="map-overlay/station-clustered-">
            <g id="Group" transform="translate(2.000000, 3.000000)">
                <path d="M8.4,29.2982583 L8.4,28.8447049 L8.4,21.6914504 C3.6507882,21.0084568 0,16.9020057 0,11.9382583 C0,6.97451077 3.6507882,2.86805968 8.4,2.18506614 L8.4,1.6160961 C8.4,0.838717994 9.02680135,0.208528529 9.8,0.208528529 C10.5731986,0.208528529 11.2,0.838717994 11.2,1.6160961 L11.2,2.18506614 C15.9492118,2.86805968 19.6,6.97451077 19.6,11.9382583 C19.6,16.9020057 15.9492118,21.0084568 11.2,21.6914504 L11.2,28.8447049 L11.2,29.2982583 L14,29.2982583 L14.4666667,29.2982583 L14.4666667,30.2366366 L14,30.2366366 L11.2,30.2366366 L11.2,30.2522725 L8.4,30.2522725 L8.4,30.2366366 L5.6,30.2366366 L5.13333333,30.2366366 L5.13333333,29.2982583 L5.6,29.2982583 L8.4,29.2982583 Z" id="Shape" fill="#003377"></path>
                <ellipse id="Oval-13-Copy" fill="#FFFFFF" cx="9.8" cy="11.9382583" rx="7" ry="7.03783784"></ellipse>
            </g>
        </g>
        <use id="Rectangle-136" stroke="#505050" mask="url(#mask-2)" stroke-width="4" stroke-linecap="square" xlink:href="#path-1"></use>
    </g>
</svg>