<?xml version="1.0" encoding="UTF-8" standalone="no"?>
<!-- Generator: Adobe Illustrator 18.1.1, SVG Export Plug-In . SVG Version: 6.00 Build 0)  -->

<svg
   xmlns:dc="http://purl.org/dc/elements/1.1/"
   xmlns:cc="http://creativecommons.org/ns#"
   xmlns:rdf="http://www.w3.org/1999/02/22-rdf-syntax-ns#"
   xmlns:svg="http://www.w3.org/2000/svg"
   xmlns="http://www.w3.org/2000/svg"
   xmlns:sodipodi="http://sodipodi.sourceforge.net/DTD/sodipodi-0.dtd"
   xmlns:inkscape="http://www.inkscape.org/namespaces/inkscape"
   version="1.1"
   id="Capa_1"
   x="0px"
   y="0px"
   viewBox="0 0 37.541998 52.066015"
   xml:space="preserve"
   inkscape:version="0.91 r13725"
   sodipodi:docname="to.svg"
   width="37.542"
   height="52.066017"><metadata
     id="metadata9"><rdf:RDF><cc:Work
         rdf:about=""><dc:format>image/svg+xml</dc:format><dc:type
           rdf:resource="http://purl.org/dc/dcmitype/StillImage" /><dc:title></dc:title></cc:Work></rdf:RDF></metadata><defs
     id="defs7" /><sodipodi:namedview
     pagecolor="#ffffff"
     bordercolor="#666666"
     borderopacity="1"
     objecttolerance="10"
     gridtolerance="10"
     guidetolerance="10"
     inkscape:pageopacity="0"
     inkscape:pageshadow="2"
     inkscape:window-width="2048"
     inkscape:window-height="1089"
     id="namedview5"
     showgrid="false"
     inkscape:zoom="16.840946"
     inkscape:cx="18.771"
     inkscape:cy="26.033008"
     inkscape:window-x="-8"
     inkscape:window-y="-8"
     inkscape:window-maximized="1"
     inkscape:current-layer="Capa_1"
     fit-margin-top="0"
     fit-margin-left="0"
     fit-margin-right="0"
     fit-margin-bottom="0" /><path
     style="fill:#387ef5;fill-opacity:1;stroke:#000000;stroke-linejoin:round;stroke-opacity:1"
     d="M 18.771,0.49999809 C 8.695,0.49999809 0.5,8.6989981 0.5,18.770998 c 0,9.461 13.676,19.698 17.63,32.338 0.085,0.273 0.34,0.459 0.626,0.457 0.287,-0.004 0.538,-0.192 0.619,-0.467 3.836,-12.951 17.666,-22.856 17.667,-32.33 C 37.041,8.6989981 28.845,0.49999809 18.771,0.49999809 Z m 0,32.13099991 c -7.9,0 -14.328,-6.429 -14.328,-14.328 0,-7.9 6.428,-14.3279999 14.328,-14.3279999 7.898,0 14.327,6.4279999 14.327,14.3279999 0,7.899 -6.429,14.328 -14.327,14.328 z"
     id="path3"
     inkscape:connector-curvature="0" /><text
     xml:space="preserve"
     style="font-style:normal;font-variant:normal;font-weight:bold;font-stretch:normal;font-size:27.5px;line-height:125%;font-family:sans-serif;-inkscape-font-specification:'sans-serif, Bold';text-align:start;letter-spacing:0px;word-spacing:0px;writing-mode:lr-tb;text-anchor:start;fill:#00618d;fill-opacity:1;stroke:#000000;stroke-width:1;stroke-linecap:butt;stroke-linejoin:miter;stroke-miterlimit:4;stroke-dasharray:none;stroke-opacity:1"
     x="8.8772135"
     y="29.909821"
     id="text4137"
     sodipodi:linespacing="125%"
     transform="scale(1.0285608,0.97223226)"
     inkscape:transform-center-x="-3.029339"
     inkscape:transform-center-y="-0.43276271"><tspan
       sodipodi:role="line"
       id="tspan4139"
       x="8.8772135"
       y="29.909821">T</tspan></text>
<path
     style="opacity:0.75;fill:#ffffff;fill-opacity:1;stroke:#009b00;stroke-width:0.21638137;stroke-miterlimit:4;stroke-dasharray:none;stroke-opacity:1"
     d="M 15.648271,32.192655 C 10.477856,31.070363 6.0596338,26.620127 4.8881606,21.354579 4.4094872,19.203034 4.5575296,15.933156 5.2249553,13.915644 7.3489499,7.4951764 13.640932,3.4720267 20.407319,4.2079054 25.80747,4.7951992 30.617024,8.717837 32.309996,13.915644 c 0.571357,1.754195 0.770084,5.322542 0.401543,7.210126 -1.035813,5.305225 -5.637323,9.966248 -10.932837,11.07424 -1.863732,0.389951 -4.313572,0.387013 -6.130431,-0.0074 z m 5.805859,-10.811854 0,-7.89792 3.24572,0 3.245721,0 0,-1.947432 0,-1.9474324 -9.196208,0 -9.1962082,0 0,1.9474324 0,1.947432 3.2457202,0 3.245721,0 0,7.753665 c 0,4.264517 0.06491,7.818581 0.144254,7.89792 0.07934,0.07934 1.296485,0.144255 2.704767,0.144255 l 2.560513,0 0,-7.89792 z"
     id="path5307"
     inkscape:connector-curvature="0" /></svg>