<?xml version="1.0" encoding="UTF-8" standalone="no"?>
<svg width="18px" height="16px" viewBox="0 0 18 16" version="1.1" xmlns="http://www.w3.org/2000/svg" xmlns:xlink="http://www.w3.org/1999/xlink">
    <!-- Generator: Sketch 3.8.3 (29802) - http://www.bohemiancoding.com/sketch -->
    <title>icon/traffic blue</title>
    <desc>Created with Sketch.</desc>
    <defs></defs>
    <g id="Symbols" stroke="none" stroke-width="1" fill="none" fill-rule="evenodd">
        <g id="icon/traffic-blue" fill="#003377">
            <g id="Group-2">
                <path d="M15.3356481,0.964506173 C15.1427469,0.385802469 14.5640432,0 13.9853395,0 L3.3757716,0 C2.70061728,0 2.2183642,0.385802469 2.02546296,0.964506173 L0,6.75154321 L0,14.4675926 C0,15.0462963 0.385802469,15.4320988 0.964506173,15.4320988 L1.92901235,15.4320988 C2.50771605,15.4320988 2.89351852,15.0462963 2.89351852,14.4675926 L2.89351852,13.5030864 L14.4675926,13.5030864 L14.4675926,14.4675926 C14.4675926,15.0462963 14.8533951,15.4320988 15.4320988,15.4320988 L16.3966049,15.4320988 C16.9753086,15.4320988 17.3611111,15.0462963 17.3611111,14.4675926 L17.3611111,6.75154321 L15.3356481,0.964506173 L15.3356481,0.964506173 Z M3.3757716,10.6095679 C2.60416667,10.6095679 1.92901235,9.93441358 1.92901235,9.16280864 C1.92901235,8.3912037 2.60416667,7.71604938 3.3757716,7.71604938 C4.14737654,7.71604938 4.82253086,8.3912037 4.82253086,9.16280864 C4.82253086,9.93441358 4.14737654,10.6095679 3.3757716,10.6095679 L3.3757716,10.6095679 Z M13.9853395,10.6095679 C13.2137346,10.6095679 12.5385802,9.93441358 12.5385802,9.16280864 C12.5385802,8.3912037 13.2137346,7.71604938 13.9853395,7.71604938 C14.7569444,7.71604938 15.4320988,8.3912037 15.4320988,9.16280864 C15.4320988,9.93441358 14.7569444,10.6095679 13.9853395,10.6095679 L13.9853395,10.6095679 Z M1.92901235,5.78703704 L3.3757716,1.44675926 L13.9853395,1.44675926 L15.4320988,5.78703704 L1.92901235,5.78703704 L1.92901235,5.78703704 Z" id="Shape"></path>
            </g>
        </g>
    </g>
</svg>