<?xml version="1.0" encoding="UTF-8" standalone="no"?>
<!-- Generator: Adobe Illustrator 19.0.0, SVG Export Plug-In . SVG Version: 6.00 Build 0)  -->

<svg
   xmlns:dc="http://purl.org/dc/elements/1.1/"
   xmlns:cc="http://creativecommons.org/ns#"
   xmlns:rdf="http://www.w3.org/1999/02/22-rdf-syntax-ns#"
   xmlns:svg="http://www.w3.org/2000/svg"
   xmlns="http://www.w3.org/2000/svg"
   xmlns:sodipodi="http://sodipodi.sourceforge.net/DTD/sodipodi-0.dtd"
   xmlns:inkscape="http://www.inkscape.org/namespaces/inkscape"
   version="1.1"
   id="Layer_1"
   x="0px"
   y="0px"
   viewBox="0 0 512 512"
   style="enable-background:new 0 0 512 512;"
   xml:space="preserve"
   inkscape:version="0.91 r13725"
   sodipodi:docname="uber.svg"><metadata
     id="metadata41"><rdf:RDF><cc:Work
         rdf:about=""><dc:format>image/svg+xml</dc:format><dc:type
           rdf:resource="http://purl.org/dc/dcmitype/StillImage" /><dc:title></dc:title></cc:Work></rdf:RDF></metadata><defs
     id="defs39" /><sodipodi:namedview
     pagecolor="#ffffff"
     bordercolor="#666666"
     borderopacity="1"
     objecttolerance="10"
     gridtolerance="10"
     guidetolerance="10"
     inkscape:pageopacity="0"
     inkscape:pageshadow="2"
     inkscape:window-width="2048"
     inkscape:window-height="1089"
     id="namedview37"
     showgrid="false"
     inkscape:zoom="0.4609375"
     inkscape:cx="-79.186441"
     inkscape:cy="256"
     inkscape:window-x="-8"
     inkscape:window-y="-8"
     inkscape:window-maximized="1"
     inkscape:current-layer="Layer_1" /><path
     style="fill:#314E55;"
     d="M293.236,0.009v31.14c0,28.581,22.572,51.831,50.308,51.831h70.708v265.945  c0,44.917-32.427,80.103-73.817,80.103H171.02c-41.09,0-73.271-34.94-73.271-79.544V82.98h117.571V44.899  C215.319,20.141,195.747,0,171.692,0H13.968v348.916c-0.009,43.327,16.391,84.194,46.163,115.066  C89.985,494.946,129.557,512,171.556,512h168.161c87.298,0,158.315-73.494,158.315-163.829V0.009H293.236z"
     id="path3" /><path
     style="fill:#D8D8D8;"
     d="M479.414,348.171c0,80.071-62.672,145.211-139.697,145.211H171.556  c-36.89,0-71.708-15.032-98.026-42.322c-26.408-27.386-40.945-63.663-40.945-102.144V18.618h139.107  c13.791,0,25.009,11.791,25.009,26.281v19.463H79.131v285.122c0,55.044,40.363,98.162,91.889,98.162h169.415  c51.835,0,92.435-43.363,92.435-98.721V64.362h-89.326c-17.473,0-31.691-14.899-31.691-33.213V18.627h167.561V348.171z"
     id="path5" /><g
     id="g7" /><g
     id="g9" /><g
     id="g11" /><g
     id="g13" /><g
     id="g15" /><g
     id="g17" /><g
     id="g19" /><g
     id="g21" /><g
     id="g23" /><g
     id="g25" /><g
     id="g27" /><g
     id="g29" /><g
     id="g31" /><g
     id="g33" /><g
     id="g35" /></svg>