<?xml version="1.0" encoding="UTF-8" standalone="no"?>
<svg
   xmlns:dc="http://purl.org/dc/elements/1.1/"
   xmlns:cc="http://creativecommons.org/ns#"
   xmlns:rdf="http://www.w3.org/1999/02/22-rdf-syntax-ns#"
   xmlns:svg="http://www.w3.org/2000/svg"
   xmlns="http://www.w3.org/2000/svg"
   xmlns:sodipodi="http://sodipodi.sourceforge.net/DTD/sodipodi-0.dtd"
   xmlns:inkscape="http://www.inkscape.org/namespaces/inkscape"
   width="22px"
   height="21px"
   viewBox="0 0 22 21"
   version="1.1"
   id="svg4173"
   inkscape:version="0.91 r13725"
   sodipodi:docname="ucmapicon.svg">
  <metadata
     id="metadata4186">
    <rdf:RDF>
      <cc:Work
         rdf:about="">
        <dc:format>image/svg+xml</dc:format>
        <dc:type
           rdf:resource="http://purl.org/dc/dcmitype/StillImage" />
        <dc:title>icon/favorites-blue-deselected large</dc:title>
      </cc:Work>
    </rdf:RDF>
  </metadata>
  <sodipodi:namedview
     pagecolor="#ffffff"
     bordercolor="#666666"
     borderopacity="1"
     objecttolerance="10"
     gridtolerance="10"
     guidetolerance="10"
     inkscape:pageopacity="0"
     inkscape:pageshadow="2"
     inkscape:window-width="2048"
     inkscape:window-height="1089"
     id="namedview4184"
     showgrid="false"
     inkscape:zoom="40.952381"
     inkscape:cx="11"
     inkscape:cy="10.5"
     inkscape:window-x="-8"
     inkscape:window-y="-8"
     inkscape:window-maximized="1"
     inkscape:current-layer="svg4173" />
  <!-- Generator: Sketch 3.8.3 (29802) - http://www.bohemiancoding.com/sketch -->
  <title
     id="title4175">icon/favorites-blue-deselected large</title>
  <desc
     id="desc4177">Created with Sketch.</desc>
  <defs
     id="defs4179" />
  <g
     id="Symbols"
     stroke="none"
     stroke-width="1"
     fill="none"
     fill-rule="evenodd"
     stroke-linecap="square"
     stroke-linejoin="round">
    <g
       id="icon/favorites-blue-deselected-large"
       stroke-width="1.5"
       stroke="#003377">
      <polygon
         id="Star-2"
         points="10.9888911 16.035033 4.8154169 20 6.67861619 12.9034349 1 8.25735421 8.32499472 7.83640282 10.9888911 1 13.6527875 7.83640282 20.9777823 8.25735421 15.2991661 12.9034349 17.1623654 20" />
    </g>
  </g>
  <path
     style="fill:#ffe680;stroke-width:2;stroke-miterlimit:4;stroke-dasharray:none"
     d="m 6.0576744,18.279146 c 0,-0.0073 0.3089967,-1.18645 0.6866592,-2.620336 0.7572637,-2.875131 0.743538,-2.808133 0.6271016,-3.061059 -0.033436,-0.07263 -0.092724,-0.16531 -0.1317531,-0.205956 C 7.2006534,12.351148 6.2357747,11.555127 5.095507,10.62286 3.4261486,9.2580148 3.0313452,8.9243988 3.0687628,8.9102248 3.0943212,8.9005433 4.2305523,8.8305098 5.5937209,8.7545953 8.5646564,8.5891443 8.5051961,8.5938044 8.6607944,8.5142119 8.8021778,8.4418906 8.939763,8.3038376 9.0058097,8.1680233 9.0319342,8.1143023 9.4863698,6.9577788 10.015666,5.5979712 c 0.529296,-1.3598075 0.967851,-2.4722554 0.974567,-2.4721063 0.0067,1.492e-4 0.457238,1.1444745 1.001162,2.5429454 0.925689,2.3800167 0.995815,2.5503526 1.09621,2.6627014 0.05899,0.066015 0.16302,0.1482846 0.231176,0.1828218 0.164057,0.083134 -0.04195,0.068042 3.947033,0.2891495 0.87968,0.04876 1.619927,0.096506 1.644994,0.106101 0.0363,0.013896 -0.387061,0.3714143 -2.080479,1.756912 l -2.126054,1.739466 -0.07923,0.160942 c -0.13985,0.284075 -0.164375,0.159457 0.609278,3.095868 0.378359,1.436065 0.684635,2.614317 0.680615,2.618338 -0.004,0.004 -1.017576,-0.642067 -2.252345,-1.43575 -1.234769,-0.793683 -2.299976,-1.469109 -2.367127,-1.500948 -0.09506,-0.04507 -0.163343,-0.05794 -0.308397,-0.05813 -0.162911,-2.2e-4 -0.205837,0.0098 -0.341861,0.07986 -0.08556,0.04406 -1.1390151,0.712381 -2.341021,1.485169 -2.4386408,1.56784 -2.2465116,1.445727 -2.2465116,1.42783 z"
     id="path4188"
     inkscape:connector-curvature="0" />
</svg>
