<?xml version="1.0" encoding="UTF-8" standalone="no"?>
<svg width="27px" height="27px" viewBox="0 0 27 27" version="1.1" xmlns="http://www.w3.org/2000/svg" xmlns:xlink="http://www.w3.org/1999/xlink">
    <!-- Generator: Sketch 3.8.3 (29802) - http://www.bohemiancoding.com/sketch -->
    <title>map overlay/user position</title>
    <desc>Created with Sketch.</desc>
    <defs>
        <circle id="path-1" cx="13.5" cy="13.5" r="9.5"></circle>
        <mask id="mask-2" maskContentUnits="userSpaceOnUse" maskUnits="objectBoundingBox" x="0" y="0" width="19" height="19" fill="white">
            <use xlink:href="#path-1"></use>
        </mask>
        <rect id="path-3" x="-323" y="-53" width="501" height="310"></rect>
        <mask id="mask-4" maskContentUnits="userSpaceOnUse" maskUnits="objectBoundingBox" x="0" y="0" width="501" height="310" fill="white">
            <use xlink:href="#path-3"></use>
        </mask>
    </defs>
    <g id="Symbols" stroke="none" stroke-width="1" fill="none" fill-rule="evenodd">
        <g id="map-overlay/user-position">
            <circle id="Oval-75" fill-opacity="0.15" fill="#003377" cx="13.5" cy="13.5" r="13.5"></circle>
            <use id="Oval-3" stroke="#003377" mask="url(#mask-2)" stroke-width="3" stroke-linecap="square" fill="#FFFFFF" xlink:href="#path-1"></use>
            <path d="M13.5,13 C14.7375,13 15.75,11.9875 15.75,10.75 C15.75,9.5125 14.7375,8.5 13.5,8.5 C12.2625,8.5 11.25,9.5125 11.25,10.75 C11.25,11.9875 12.2625,13 13.5,13 L13.5,13 Z M13.5,14.125 C11.98125,14.125 9,14.85625 9,16.375 L9,17.5 L18,17.5 L18,16.375 C18,14.85625 15.01875,14.125 13.5,14.125 L13.5,14.125 Z" id="Shape" fill="#003377"></path>
        </g>
        <use id="Rectangle-136" stroke="#505050" mask="url(#mask-4)" stroke-width="4" stroke-linecap="square" xlink:href="#path-3"></use>
    </g>
</svg>