<?xml version="1.0" encoding="UTF-8" standalone="no"?>
<svg width="15px" height="15px" viewBox="0 0 15 15" version="1.1" xmlns="http://www.w3.org/2000/svg" xmlns:xlink="http://www.w3.org/1999/xlink">
    <!-- Generator: Sketch 3.8.3 (29802) - http://www.bohemiancoding.com/sketch -->
    <title>map overlay/vehicle</title>
    <desc>Created with Sketch.</desc>
    <defs>
        <path d="M7.5,15 C11.6421356,15 15,11.6421356 15,7.5 C15,3.35786438 11.6421356,0 7.5,0 C3.35786438,0 0,3.35786438 0,7.5 C0,11.6421356 3.35786438,15 7.5,15 Z" id="path-1"></path>
        <mask id="mask-2" maskContentUnits="userSpaceOnUse" maskUnits="objectBoundingBox" x="-1.184" y="-1.184" width="17.368" height="17.368">
            <rect x="-1.184" y="-1.184" width="17.368" height="17.368" fill="white"></rect>
            <use xlink:href="#path-1" fill="black"></use>
        </mask>
        <rect id="path-3" x="-291" y="-55" width="501" height="310"></rect>
        <mask id="mask-4" maskContentUnits="userSpaceOnUse" maskUnits="objectBoundingBox" x="0" y="0" width="501" height="310" fill="white">
            <use xlink:href="#path-3"></use>
        </mask>
    </defs>
    <g id="Symbols" stroke="none" stroke-width="1" fill="none" fill-rule="evenodd">
        <g id="map-overlay/vehicle">
            <g id="Path-Copy">
                <use fill="#646460" fill-rule="evenodd" xlink:href="#path-1"></use>
                <use stroke="#FFFFFF" mask="url(#mask-2)" stroke-width="2.368" xlink:href="#path-1"></use>
            </g>
            <path d="M10.587478,4.18179978 C10.4992945,3.73916466 10.2248677,3.56355008 9.80864198,3.38649603 C9.40229277,3.21304064 8.42239859,3.00575786 7.69929453,3 C6.97477954,3.00575786 5.9962963,3.21304064 5.58571429,3.38865523 C5.17372134,3.56355008 4.89647266,3.73916466 4.81111111,4.18179978 L4.5,6.62169092 L4.5,9.99147568 L5.0361552,9.99147568 L5.0361552,10.5147208 C5.03474427,11.1617597 5.95749559,11.1617597 5.95749559,10.5147208 L5.95749559,9.99147568 L7.66261023,9.99147568 L7.66684303,9.99147568 L9.44179894,9.99147568 L9.44179894,10.5147208 C9.44038801,11.1617597 10.3638448,11.1617597 10.3638448,10.5147208 L10.3638448,9.99147568 L10.9,9.99147568 L10.9,6.62169092 L10.587478,4.18179978 L10.587478,4.18179978 Z M5.75530324,9.20329756 C5.36721061,9.20329756 5.05391402,8.88006667 5.05391402,8.48124726 C5.05391402,8.08530741 5.36650499,7.76495608 5.75530324,7.76495608 C6.14833523,7.76495608 6.4609262,8.08530741 6.46515993,8.48124726 C6.4609262,8.88006667 6.1476296,9.20329756 5.75530324,9.20329756 L5.75530324,9.20329756 Z M5.67758082,6.88093039 C5.48355904,6.88237017 5.44223958,6.69447871 5.46140223,6.50514748 L5.66680184,4.53192726 C5.69614464,4.29364346 5.7560279,4.13454763 5.99017148,4.13382774 L7.66810064,4.13382774 L9.40950607,4.13382774 C9.64125432,4.13454763 9.70293408,4.29364346 9.73347455,4.53192726 L9.93707766,6.50514748 C9.95444381,6.69447871 9.91372318,6.88237017 9.72209673,6.88093039 L7.67169364,6.88093039 L5.67758082,6.88093039 L5.67758082,6.88093039 Z M9.63693512,9.20473734 C9.24813687,9.20473734 8.93484028,8.88078656 8.93484028,8.48124726 C8.93484028,8.08458752 9.24813687,7.7635163 9.63693512,7.7635163 C10.0278502,7.7635163 10.3460862,8.08458752 10.3460862,8.48124726 C10.3460862,8.88078656 10.0278502,9.20473734 9.63693512,9.20473734 L9.63693512,9.20473734 Z" id="bus" fill="#FFFFFF"></path>
        </g>
        <use id="Rectangle-136" stroke="#505050" mask="url(#mask-4)" stroke-width="4" stroke-linecap="square" xlink:href="#path-3"></use>
    </g>
</svg>